<svg height="512pt" viewBox="0 -24 512 511" width="512pt" xmlns="http://www.w3.org/2000/svg"><path d="m285.539062 187.578125h39.382813c8.15625 0 14.769531-6.613281 14.769531-14.769531s-6.613281-14.769532-14.769531-14.769532h-39.382813c-8.15625 0-14.769531 6.613282-14.769531 14.769532s6.613281 14.769531 14.769531 14.769531zm0 0"/><path d="m497.230469 217.117188h-108.308594v-201.847657c0-8.15625-6.613281-14.769531-14.769531-14.769531h-236.304688c-8.15625 0-14.769531 6.613281-14.769531 14.769531v201.847657h-108.308594c-8.15625 0-14.769531 6.609374-14.769531 14.765624v216.617188c0 8.15625 6.613281 14.769531 14.769531 14.769531h482.460938c8.15625 0 14.769531-6.613281 14.769531-14.769531v-216.617188c0-8.15625-6.613281-14.765624-14.769531-14.765624zm-147.691407 29.535156h49.230469v68.925781h-49.230469zm-68.921874-216.613282v68.921876h-49.234376v-68.921876zm-128 0h49.230468v83.691407c0 8.15625 6.609375 14.769531 14.769532 14.769531h78.765624c8.160157 0 14.769532-6.613281 14.769532-14.769531v-83.691407h49.230468v187.078126h-206.765624zm4.921874 216.613282v68.925781h-49.230468v-68.925781zm-128 0h49.230469v83.695312c0 8.15625 6.613281 14.769532 14.769531 14.769532h78.769532c8.15625 0 14.769531-6.613282 14.769531-14.769532v-83.695312h54.152344v187.078125h-211.691407zm452.921876 187.078125h-211.691407v-187.078125h49.230469v83.695312c0 8.15625 6.613281 14.769532 14.769531 14.769532h78.769531c8.15625 0 14.769532-6.613282 14.769532-14.769532v-83.695312h54.152344zm0 0"/><path d="m408.617188 374.652344c-8.160157 0-14.769532 6.613281-14.769532 14.769531s6.609375 14.769531 14.769532 14.769531h39.382812c8.15625 0 14.769531-6.613281 14.769531-14.769531s-6.613281-14.769531-14.769531-14.769531zm0 0"/><path d="m201.847656 374.652344h-39.386718c-8.15625 0-14.769532 6.613281-14.769532 14.769531s6.613282 14.769531 14.769532 14.769531h39.386718c8.15625 0 14.769532-6.613281 14.769532-14.769531s-6.613282-14.769531-14.769532-14.769531zm0 0"/></svg>